<svg version="1.1" xmlns="http://www.w3.org/2000/svg" xmlns:xlink="http://www.w3.org/1999/xlink" width="161.55252" height="209.1782" viewBox="0,0,161.55252,209.1782"><g transform="translate(-159.22374,-60.7109)"><g data-paper-data="{&quot;isPaintingLayer&quot;:true}" fill-rule="nonzero" stroke-linecap="butt" stroke-linejoin="miter" stroke-miterlimit="10" stroke-dasharray="" stroke-dashoffset="0" style="mix-blend-mode: normal"><path d="M161.22374,267.8891v-205.1782h157.55252v205.1782z" fill="#6b0000" stroke="#000000" stroke-width="4"/><text transform="translate(209.95001,94.80712) scale(0.5,0.5)" font-size="40" xml:space="preserve" fill="#ffffff" fill-rule="nonzero" stroke="none" stroke-width="1" stroke-linecap="butt" stroke-linejoin="miter" stroke-miterlimit="10" stroke-dasharray="" stroke-dashoffset="0" font-family="Sans Serif" font-weight="normal" text-anchor="start" style="mix-blend-mode: normal"><tspan x="0" dy="0">Brutal</tspan></text><text transform="translate(176.89128,108.68207) scale(0.16795,0.16795)" font-size="40" xml:space="preserve" fill="#ff4040" fill-rule="nonzero" stroke="none" stroke-width="1" stroke-linecap="butt" stroke-linejoin="miter" stroke-miterlimit="10" stroke-dasharray="" stroke-dashoffset="0" font-family="Sans Serif" font-weight="normal" text-anchor="start" style="mix-blend-mode: normal"><tspan x="0" dy="0">Recommended for experienced players</tspan></text><g fill="#000000"><path d="M201.38645,233.84876l-6.75187,-63.92336l21.06897,33.34546l33.3766,-21.18916l21.06897,33.34546l33.3766,-21.18916l-32.67424,55.12056z" stroke="#000000" stroke-width="0"/><path d="M189.93051,169.83337c0.66028,-2.95731 3.59295,-4.81945 6.55026,-4.15913c2.95731,0.66028 4.81945,3.59295 4.15913,6.55026c-0.66028,2.95731 -3.59295,4.81945 -6.55026,4.15913c-2.95731,-0.66028 -4.81945,-3.59295 -4.15913,-6.55026z" stroke="none" stroke-width="0.5"/><path d="M244.42009,178.49463c0.66028,-2.95731 3.59295,-4.81945 6.55026,-4.15913c2.95731,0.66028 4.81945,3.59295 4.15913,6.55026c-0.66028,2.95731 -3.59295,4.81945 -6.55026,4.15913c-2.95731,-0.66028 -4.81945,-3.59295 -4.15913,-6.55026z" stroke="none" stroke-width="0.5"/><path d="M297.61319,194.33606c0.66028,-2.95731 3.59295,-4.81945 6.55026,-4.15913c2.95731,0.66028 4.81945,3.59295 4.15913,6.55026c-0.66028,2.95731 -3.59295,4.81945 -6.55026,4.15913c-2.95731,-0.66028 -4.81945,-3.59295 -4.15913,-6.55026z" stroke="none" stroke-width="0.5"/></g><g fill="#a90000"><path d="M191.53334,219.6849l-6.75187,-63.92336l21.06897,33.34546l33.3766,-21.18919l21.06901,33.34546l33.3766,-21.18916l-32.67424,55.12056z" stroke="#000000" stroke-width="0"/><path d="M180.0774,155.66951c0.66028,-2.95731 3.59295,-4.81945 6.55026,-4.15917c2.95731,0.66033 4.81941,3.59295 4.15913,6.55026c-0.66028,2.95731 -3.59295,4.81945 -6.55026,4.15917c-2.95731,-0.66033 -4.81941,-3.59295 -4.15913,-6.55026z" stroke="none" stroke-width="0.5"/><path d="M234.56698,164.33076c0.66028,-2.95731 3.59295,-4.81941 6.55026,-4.15913c2.95731,0.66033 4.81945,3.59295 4.15917,6.55029c-0.66028,2.95731 -3.59295,4.81941 -6.55026,4.15913c-2.95731,-0.66033 -4.81945,-3.59295 -4.15917,-6.55029z" stroke="none" stroke-width="0.5"/><path d="M287.76008,180.17219c0.66028,-2.95731 3.59295,-4.81945 6.55026,-4.15917c2.95731,0.66033 4.81941,3.59295 4.15913,6.55029c-0.66028,2.95731 -3.59295,4.81945 -6.55026,4.15913c-2.95731,-0.66033 -4.81941,-3.59295 -4.15913,-6.55026z" stroke="none" stroke-width="0.5"/></g></g></g></svg>