<svg version="1.1" xmlns="http://www.w3.org/2000/svg" xmlns:xlink="http://www.w3.org/1999/xlink" width="102.50782" height="86.91008" viewBox="0,0,102.50782,86.91008"><defs><radialGradient cx="239.51946" cy="177.91866" r="51.25391" gradientUnits="userSpaceOnUse" id="color-1"><stop offset="0" stop-color="#ff0000"/><stop offset="1" stop-color="#ff0000" stop-opacity="0.03922"/></radialGradient><radialGradient cx="239.52632" cy="178.73684" r="42.24705" gradientUnits="userSpaceOnUse" id="color-2"><stop offset="0" stop-color="#ff0000" stop-opacity="0.23529"/><stop offset="1" stop-color="#ff0000" stop-opacity="0.11373"/></radialGradient></defs><g transform="translate(-188.26555,-134.46361)"><g data-paper-data="{&quot;isPaintingLayer&quot;:true}" fill-rule="nonzero" stroke="none" stroke-width="0" stroke-linecap="butt" stroke-linejoin="miter" stroke-miterlimit="10" stroke-dasharray="" stroke-dashoffset="0" style="mix-blend-mode: normal"><path d="M290.77335,157.5381c0,38.74041 -51.2539,63.8356 -51.2539,63.8356c0,0 -51.2539,-25.32056 -51.2539,-64.06097c0,-19.80951 17.89873,-26.66543 32.93804,-20.85174c15.85801,6.13019 19.11614,14.57429 19.28559,14.49995c0.22628,0.01856 3.70269,-4.79115 16.85718,-13.14853c13.61043,-8.64706 33.42701,0.02553 33.42701,19.72569z" fill="url(#color-1)"/><path d="M281.77335,161.93776c0,31.93255 -42.24704,52.61776 -42.24704,52.61776c0,0 -42.24704,-20.87097 -42.24704,-52.80352c0,-16.32838 14.75339,-21.97951 27.14983,-17.18746c13.07128,5.05293 15.75685,12.01316 15.89653,11.95187c0.18652,0.0153 3.05201,-3.9492 13.89486,-10.83794c11.21867,-7.12751 27.55288,0.02104 27.55288,16.25929z" fill="url(#color-2)"/><path d="M273.11068,166.8339c0,25.0268 -33.11068,41.23862 -33.11068,41.23862c0,0 -33.11068,-16.35741 -33.11068,-41.38421c0,-12.7972 11.56281,-17.22621 21.2784,-13.47049c10.24448,3.96018 12.11688,10.21297 12.27064,10.24494c0.27158,-0.01936 2.58008,-3.97293 11.07805,-9.37191c8.79251,-5.58611 21.59428,0.01649 21.59428,12.74305z" fill="#ff0000"/></g></g></svg>