<svg version="1.1" xmlns="http://www.w3.org/2000/svg" xmlns:xlink="http://www.w3.org/1999/xlink" width="22.38243" height="22.54189" viewBox="0,0,22.38243,22.54189"><g transform="translate(-228.80879,-168.72908)"><g data-paper-data="{&quot;isPaintingLayer&quot;:true}" fill-rule="nonzero" stroke-width="0" stroke-linecap="butt" stroke-linejoin="miter" stroke-miterlimit="10" stroke-dasharray="" stroke-dashoffset="0" style="mix-blend-mode: normal"><path d="M228.80879,188.47405c0,-4.72313 0,-14.03706 0,-16.81346c0,-1.57758 1.62523,-2.93151 3.10069,-2.93151c2.73772,0 11.98844,0 16.58921,0c1.5824,0 2.69253,1.15216 2.69253,2.16726c0,2.42081 0,12.34647 0,17.40787c0,1.74523 -1.31009,2.96676 -3.04549,2.96676c-4.89771,0 -14.41225,0 -16.94217,0c-1.18599,0 -2.39477,-1.10333 -2.39477,-2.79692z" fill="#bf0000" stroke="#000000"/><path d="M238.68608,188.96683l-0.16159,-10.70597l-3.0992,0.09753l4.49638,-7.32521l4.65306,7.18712l-3.05673,0.04613l0.16082,10.65523z" fill="#ffffff" stroke="none"/></g></g></svg>