<svg version="1.1" xmlns="http://www.w3.org/2000/svg" xmlns:xlink="http://www.w3.org/1999/xlink" width="20.04982" height="5" viewBox="0,0,20.04982,5"><defs><linearGradient x1="301.63903" y1="180.09514" x2="321.68884" y2="180.09514" gradientUnits="userSpaceOnUse" id="color-1"><stop offset="0" stop-color="#ff007c" stop-opacity="0"/><stop offset="1" stop-color="#ff007c"/></linearGradient><linearGradient x1="316.67387" y1="179.97286" x2="321.67387" y2="179.97286" gradientUnits="userSpaceOnUse" id="color-2"><stop offset="0" stop-color="#ff007c" stop-opacity="0"/><stop offset="1" stop-color="#ff007c"/></linearGradient></defs><g transform="translate(-301.63903,-177.47286)"><g data-paper-data="{&quot;isPaintingLayer&quot;:true}" fill-rule="nonzero" stroke="none" stroke-width="0.5" stroke-linecap="butt" stroke-linejoin="miter" stroke-miterlimit="10" stroke-dasharray="" stroke-dashoffset="0" style="mix-blend-mode: normal"><path d="M301.63903,180.16285c0,0 18.58489,-0.91034 19.10611,-0.91034c0.5212,0 0.94371,0.37726 0.94371,0.84263c0,0.46537 -0.42252,0.84263 -0.94371,0.84263c-0.5212,0 -19.10611,-0.77492 -19.10611,-0.77492z" fill="url(#color-1)"/><path d="M316.67387,179.97286c0,-1.38071 1.11929,-2.5 2.5,-2.5c1.38071,0 2.5,1.11929 2.5,2.5c0,1.38071 -1.11929,2.5 -2.5,2.5c-1.38071,0 -2.5,-1.11929 -2.5,-2.5z" fill="url(#color-2)"/></g></g></svg>