<svg version="1.1" xmlns="http://www.w3.org/2000/svg" xmlns:xlink="http://www.w3.org/1999/xlink" width="171.85003" height="171.85003" viewBox="0,0,171.85003,171.85003"><defs><radialGradient cx="320" cy="179.99999" r="85.92501" gradientUnits="userSpaceOnUse" id="color-1"><stop offset="0" stop-color="#ffa600" stop-opacity="0.39608"/><stop offset="1" stop-color="#ffa600" stop-opacity="0"/></radialGradient><radialGradient cx="320" cy="179.99999" r="66.05002" gradientUnits="userSpaceOnUse" id="color-2"><stop offset="0" stop-color="#ffa600" stop-opacity="0.82745"/><stop offset="1" stop-color="#ffa600" stop-opacity="0"/></radialGradient></defs><g transform="translate(-234.07498,-94.07498)"><g data-paper-data="{&quot;isPaintingLayer&quot;:true}" fill-rule="nonzero" stroke="none" stroke-width="0.5" stroke-linecap="butt" stroke-linejoin="miter" stroke-miterlimit="10" stroke-dasharray="" stroke-dashoffset="0" style="mix-blend-mode: normal"><path d="M234.07499,179.99999c0,-47.45507 38.46995,-85.925 85.92502,-85.925c47.45507,0 85.92501,38.46993 85.92501,85.92502c0,47.45507 -38.46994,85.92501 -85.92501,85.92501c-47.45507,0 -85.925,-38.46993 -85.925,-85.925z" fill="url(#color-1)"/><path d="M253.94998,179.99999c0,-36.47842 29.57161,-66.05001 66.05002,-66.05001c36.47841,0 66.05002,29.57159 66.05002,66.05002c0,36.47841 -29.57161,66.05002 -66.05002,66.05002c-36.47841,0 -66.05001,-29.57159 -66.05001,-66.05001z" fill="url(#color-2)"/></g></g></svg>