<svg version="1.1" xmlns="http://www.w3.org/2000/svg" xmlns:xlink="http://www.w3.org/1999/xlink" width="140.27993" height="142.21946" viewBox="0,0,140.27993,142.21946"><defs><radialGradient cx="320.00002" cy="180" r="71.10972" gradientUnits="userSpaceOnUse" id="color-1"><stop offset="0" stop-color="#ffef00"/><stop offset="1" stop-color="#ffef00" stop-opacity="0"/></radialGradient><radialGradient cx="320.00002" cy="180.00001" r="60.53256" gradientUnits="userSpaceOnUse" id="color-2"><stop offset="0" stop-color="#ffef00"/><stop offset="1" stop-color="#ffef00" stop-opacity="0"/></radialGradient></defs><g transform="translate(-249.86003,-108.89027)"><g data-paper-data="{&quot;isPaintingLayer&quot;:true}" fill-rule="nonzero" stroke="none" stroke-width="0.5" stroke-linecap="butt" stroke-linejoin="miter" stroke-miterlimit="10" stroke-dasharray="" stroke-dashoffset="0" style="mix-blend-mode: normal"><path d="M249.86006,180c0,0 38.64163,-7.57474 52.91816,-20.58055c12.63512,-11.51049 18.19155,-50.52918 18.19155,-50.52918c0,0 3.64316,38.14307 16.51873,51.06584c12.814,12.86095 52.65147,21.98343 52.65147,21.98343c0,0 -42.80536,4.68966 -52.48902,16.83939c-13.02868,16.34662 -16.68119,52.3308 -16.68119,52.3308c0,0 -6.71466,-43.09568 -19.31939,-54.46433c-14.42971,-13.01465 -51.79033,-16.6454 -51.79033,-16.6454z" fill="url(#color-1)"/><path d="M260.29296,180.00001c0,0 32.89391,-6.44804 45.04689,-17.5193c10.75571,-9.79836 15.48568,-43.01326 15.48568,-43.01326c0,0 3.10125,32.46952 14.06165,43.47008c10.90799,10.94796 44.81986,18.71353 44.81986,18.71353c0,0 -36.43831,3.9921 -44.68156,14.33463c-11.09073,13.91515 -14.19995,44.54689 -14.19995,44.54689c0,0 -5.71589,-36.68545 -16.44575,-46.36307c-12.28337,-11.0788 -44.08682,-14.16948 -44.08682,-14.16948z" fill="url(#color-2)"/><path d="M274.81447,180.00001c0,0 24.8937,-4.8798 34.09094,-13.2584c8.13979,-7.41528 11.71936,-32.55189 11.71936,-32.55189c0,0 2.34699,24.57252 10.64169,32.89762c8.25503,8.28528 33.91912,14.16216 33.91912,14.16216c0,0 -27.57606,3.02118 -33.81447,10.84828c-8.39332,10.53082 -10.74634,33.71255 -10.74634,33.71255c0,0 -4.32571,-27.76309 -12.44593,-35.087c-9.2959,-8.3843 -33.36437,-10.72329 -33.36437,-10.72329z" fill="#ffec00"/></g></g></svg>