<svg version="1.1" xmlns="http://www.w3.org/2000/svg" xmlns:xlink="http://www.w3.org/1999/xlink" width="20.19001" height="6.86206" viewBox="0,0,20.19001,6.86206"><defs><linearGradient x1="301.48386" y1="180.22446" x2="321.53367" y2="180.22446" gradientUnits="userSpaceOnUse" id="color-1"><stop offset="0" stop-color="#ff007c" stop-opacity="0"/><stop offset="1" stop-color="#ff007c"/></linearGradient><linearGradient x1="314.81181" y1="180.02459" x2="321.67386" y2="180.02459" gradientUnits="userSpaceOnUse" id="color-2"><stop offset="0" stop-color="#ff007b" stop-opacity="0"/><stop offset="1" stop-color="#ff007b"/></linearGradient></defs><g transform="translate(-301.48386,-176.59356)"><g data-paper-data="{&quot;isPaintingLayer&quot;:true}" fill-rule="nonzero" stroke="none" stroke-width="0.5" stroke-linecap="butt" stroke-linejoin="miter" stroke-miterlimit="10" stroke-dasharray="" stroke-dashoffset="0" style="mix-blend-mode: normal"><path d="M301.48386,180.36906c0,0 18.58489,-1.94413 19.10611,-1.94413c0.5212,0 0.94371,0.80568 0.94371,1.79953c0,0.99385 -0.42252,1.79953 -0.94371,1.79953c-0.5212,0 -19.10611,-1.65492 -19.10611,-1.65492z" fill="url(#color-1)"/><path d="M314.81181,180.02459c0,-1.89491 1.53613,-3.43103 3.43103,-3.43103c1.89491,0 3.43103,1.53613 3.43103,3.43103c0,1.89491 -1.53613,3.43103 -3.43103,3.43103c-1.89491,0 -3.43103,-1.53613 -3.43103,-3.43103z" fill="url(#color-2)"/></g></g></svg>