<svg version="1.1" xmlns="http://www.w3.org/2000/svg" xmlns:xlink="http://www.w3.org/1999/xlink" width="329.61077" height="156.828" viewBox="0,0,329.61077,156.828"><defs><linearGradient x1="315.03904" y1="9.22457" x2="315.03904" y2="138.48725" gradientTransform="translate(-58.18563,-39.42542) scale(0.37133,0.37133)" gradientUnits="userSpaceOnUse" id="color-1"><stop offset="0" stop-color="#ff8080"/><stop offset="1" stop-color="#800000"/></linearGradient><linearGradient x1="315.04195" y1="9.22464" x2="315.04195" y2="138.48853" gradientTransform="translate(-58.18563,-39.42542) scale(0.37133,0.37133)" gradientUnits="userSpaceOnUse" id="color-2"><stop offset="0" stop-color="#ff8080"/><stop offset="1" stop-color="#800000"/></linearGradient></defs><g transform="translate(-154.00147,10.22483)"><g data-paper-data="{&quot;isPaintingLayer&quot;:true}" fill-rule="nonzero" stroke-linecap="butt" stroke-linejoin="miter" stroke-miterlimit="10" stroke-dasharray="" stroke-dashoffset="0" style="mix-blend-mode: normal"><text transform="translate(161.51701,110.99559) scale(2.69301,2.69301)" font-size="40" xml:space="preserve" fill="#400000" fill-rule="nonzero" stroke="#400000" stroke-width="2" stroke-linecap="butt" stroke-linejoin="miter" stroke-miterlimit="10" stroke-dasharray="" stroke-dashoffset="0" font-family="Sans Serif" font-weight="normal" text-anchor="start" style="mix-blend-mode: normal"><tspan x="0" dy="0">Brutal</tspan></text><text transform="translate(156.69448,106.17305) scale(2.69301,2.69301)" font-size="40" xml:space="preserve" fill="url(#color-1)" fill-rule="nonzero" stroke="url(#color-2)" stroke-width="2" stroke-linecap="butt" stroke-linejoin="miter" stroke-miterlimit="10" stroke-dasharray="" stroke-dashoffset="0" font-family="Sans Serif" font-weight="normal" text-anchor="start" style="mix-blend-mode: normal"><tspan x="0" dy="0">Brutal</tspan></text><g fill="#400000"><path d="M415.4255,37.26472l-1.82754,-17.30226l5.70278,9.02568l9.03411,-5.73531l5.70278,9.02568l9.03411,-5.73531l-8.844,14.91959z" stroke="#000000" stroke-width="0"/><path d="M412.3247,19.93755c0.17872,-0.80046 0.97251,-1.30449 1.77297,-1.12576c0.80046,0.17872 1.30449,0.97251 1.12576,1.77297c-0.17872,0.80046 -0.97251,1.30449 -1.77297,1.12576c-0.80046,-0.17872 -1.30449,-0.97251 -1.12576,-1.77297z" stroke="none" stroke-width="0.5"/><path d="M427.0735,22.28191c0.17872,-0.80046 0.97251,-1.30449 1.77297,-1.12576c0.80046,0.17872 1.30449,0.97251 1.12576,1.77297c-0.17872,0.80046 -0.97251,1.30449 -1.77297,1.12576c-0.80046,-0.17872 -1.30449,-0.97251 -1.12576,-1.77297z" stroke="none" stroke-width="0.5"/><path d="M441.47138,26.56974c0.17872,-0.80046 0.97251,-1.30449 1.77297,-1.12576c0.80046,0.17872 1.30449,0.97251 1.12576,1.77297c-0.17872,0.80046 -0.97251,1.30449 -1.77297,1.12576c-0.80046,-0.17872 -1.30449,-0.97251 -1.12576,-1.77297z" stroke="none" stroke-width="0.5"/></g><g fill="#ee6f6f"><path d="M412.75854,33.43096l-1.82754,-17.30226l5.70278,9.02568l9.03411,-5.73532l5.70279,9.02568l9.03411,-5.73531l-8.844,14.91959z" stroke="#000000" stroke-width="0"/><path d="M409.65774,16.10379c0.17872,-0.80046 0.97251,-1.30449 1.77297,-1.12577c0.80046,0.17873 1.30448,0.97251 1.12576,1.77297c-0.17872,0.80046 -0.97251,1.30449 -1.77297,1.12577c-0.80046,-0.17873 -1.30448,-0.97251 -1.12576,-1.77297z" stroke="none" stroke-width="0.5"/><path d="M424.40654,18.44815c0.17872,-0.80046 0.97251,-1.30448 1.77297,-1.12576c0.80046,0.17873 1.30449,0.97251 1.12577,1.77298c-0.17872,0.80046 -0.97251,1.30448 -1.77297,1.12576c-0.80046,-0.17873 -1.30449,-0.97251 -1.12577,-1.77298z" stroke="none" stroke-width="0.5"/><path d="M438.80442,22.73598c0.17872,-0.80046 0.97251,-1.30449 1.77297,-1.12577c0.80046,0.17873 1.30448,0.97251 1.12576,1.77298c-0.17872,0.80046 -0.97251,1.30449 -1.77297,1.12576c-0.80046,-0.17873 -1.30448,-0.97251 -1.12576,-1.77297z" stroke="none" stroke-width="0.5"/></g></g></g></svg>